<?xml version="1.0" standalone="no"?>
<!DOCTYPE svg PUBLIC "-//W3C//DTD SVG 20010904//EN"
	"http://www.w3.org/TR/2001/REC-SVG-20010904/DTD/svg10.dtd">
<svg version="1.0" xmlns="http://www.w3.org/2000/svg"
		 width="700.000000pt" height="700.000000pt" viewBox="0 0 700.000000 700.000000"
		 preserveAspectRatio="xMidYMid meet">
	<metadata>
		Created by potrace 1.11, written by Peter Selinger 2001-2013
	</metadata>
	<g transform="translate(0.000000,700.000000) scale(0.100000,-0.100000)"
		 fill="#000000" stroke="none">
		<path d="M290 3990 l0 -3010 33 -1 c17 0 237 -1 487 -2 l455 -2 5 -480 5 -480
802 0 c441 0 803 2 806 5 3 3 7 70 11 150 6 156 15 287 21 308 3 6 -1 13 -8
13 -7 1 -268 2 -582 3 l-570 1 -3 2538 -2 2537 2180 0 2180 0 0 -986 0 -986
28 6 c15 3 61 8 102 12 41 3 89 8 105 9 17 2 78 3 138 4 l107 1 0 1203 0 1204
-477 0 -478 0 -3 481 -2 482 -2670 0 -2670 0 0 -3010z m4844 2297 c1 -126 -2
-234 -6 -240 -4 -7 -572 -10 -1932 -10 l-1926 0 0 -2289 0 -2288 -107 -1
c-282 -1 -365 0 -370 4 -3 4 -6 3801 -3 4879 l0 177 2172 -2 2171 -2 1 -228z"/>
		<path d="M2219 4791 c-3 -16 -5 -457 -2 -466 2 -7 571 -9 1686 -8 925 0 1689
1 1697 2 13 1 15 34 15 239 l0 237 -1697 1 c-934 1 -1698 -1 -1699 -5z"/>
		<path d="M2280 3252 c-30 -2 -57 -7 -60 -12 -7 -11 -5 -434 2 -446 4 -5 392
-9 982 -9 973 1 975 1 998 21 107 97 458 320 584 372 42 18 150 72 144 72 -27
3 -2609 4 -2650 2z"/>
		<path d="M6487 3164 c-1 -1 -45 -4 -97 -8 -152 -9 -234 -21 -455 -61 -190 -35
-498 -136 -657 -216 -43 -22 -82 -39 -87 -39 -5 0 -40 -18 -78 -40 -38 -22
-94 -50 -124 -62 -227 -93 -648 -458 -861 -747 -27 -35 -48 -67 -48 -72 0 -4
-11 -19 -24 -32 -13 -13 -43 -55 -66 -93 -24 -38 -55 -82 -70 -99 -15 -16 -39
-57 -54 -90 -15 -33 -34 -73 -43 -90 -151 -286 -222 -487 -298 -840 -27 -126
-29 -137 -45 -280 -6 -49 -13 -103 -15 -120 -4 -30 -7 -139 -6 -182 l1 -23
253 3 252 2 -2 35 c-7 146 -2 343 12 435 4 22 9 54 11 70 41 272 151 569 304
820 162 267 400 521 685 733 152 112 386 239 592 321 158 62 392 129 507 146
17 2 43 7 59 10 57 11 80 14 140 20 113 11 151 14 235 15 l82 2 -2 241 -3 241
-48 1 c-27 0 -49 -1 -50 -1z"/>
		<path d="M6417 2184 c-1 -1 -40 -5 -87 -9 -46 -3 -87 -8 -90 -10 -3 -1 -29 -6
-59 -9 -29 -4 -57 -8 -61 -11 -6 -4 -20 -7 -93 -20 -41 -8 -264 -82 -322 -108
-427 -187 -764 -478 -1011 -872 -141 -225 -263 -555 -290 -789 -4 -28 -8 -54
-10 -57 -4 -8 -16 -171 -18 -244 l-1 -50 238 -3 c185 -2 238 0 242 10 2 7 6
51 9 97 3 47 10 110 16 140 5 31 11 67 14 81 28 162 135 429 234 580 314 480
796 759 1372 794 30 2 60 4 67 5 8 1 11 67 10 241 l0 239 -80 -2 c-43 -1 -79
-3 -80 -3z"/>
		<path d="M2215 1513 l1 -238 438 0 439 0 37 90 c20 50 45 108 55 130 10 22 19
42 19 45 1 3 8 16 16 30 8 14 31 60 52 103 l37 77 -547 0 -547 0 0 -237z"/>
		<path d="M6440 1202 c-293 -33 -574 -178 -768 -397 -117 -131 -197 -269 -254
-435 -41 -120 -55 -193 -54 -285 l1 -80 243 -3 242 -2 1 37 c3 153 74 343 168
455 123 146 316 239 518 250 l41 2 -1 233 -1 233 -55 -2 c-31 -2 -67 -4 -81
-6z"/>
	</g>
</svg>
